# generated from PmQm by Jehee Lee
:FULLY-SPECIFIED
:DEGREES
69
root -88.59150438 40.1269 -97.42796848 -146.7425043 85.62439979 -157.001739
RightUpLeg -28.3199403 -1.852605738 1.19951
RightLeg 43.47836486 4.254555624 0.8857376371
RightFoot -6.427140919 8.775218499 0.7927166722
RightToes 2.15368e-009 -1.59028e-015 9.93923e-017
Spine -7.61453 -6.4194 -6.80801
Spine1 13.9001 -8.2084 5.92542
HEad -8.35478 6.93291 1.06189
LeftShoulder1 9.93923e-017 0 1.22299e-017
LeftArm 7.17146 51.5107 -77.1175
LeftForeArm -130.2 -64.9855 148.23
LeftHand 0.986399 11.0489 -16.4813
RightShoulder 1.98785e-016 -4.96962e-017 1.55301e-017
RightArm 38.6574 -69.552 55.3142
RightForeArm -78.8023 62.0969 -104.647
RightHand 1.0638 -9.8024 -5.30601
LeftUpLeg 2.107540346 0.5369500353 3.68470311
LeftLeg 16.02317782 0 0
LeftFoot 8.856304882 0.6303349259 -15.88506303
LeftToes -1.72801e-010 9.79356e-011 1.69352e-011
70
root -86.23762424 40.7582 -97.563448 -117.9111074 86.06200084 -128.8826366
RightUpLeg -27.34713678 -1.598818795 3.367235895
RightLeg 27.50870969 5.368881781 3.841654663
RightFoot -6.95745468 7.620198303 1.900524887
RightToes 2.15368e-009 -1.59028e-015 9.93923e-017
Spine -9.08076 -6.99916 -4.98568
Spine1 14.2459 -8.9232 6.99096
HEad -6.4883 7.80928 0.676907
LeftShoulder1 9.93923e-017 0 1.22299e-017
LeftArm 8.48737 51.6294 -77.472
LeftForeArm -134.015 -63.5219 151.523
LeftHand 0.991592 10.8743 -16.2857
RightShoulder 1.98785e-016 -4.96962e-017 1.55301e-017
RightArm 43.2436 -71.434 48.3287
RightForeArm -80.6686 62.1351 -105.319
RightHand 1.10826 -10.0004 -5.81831
LeftUpLeg 6.870098596 0.5383090815 4.7424567
LeftLeg 11.00046064 0 0
LeftFoot 15.92219683 4.797449462 -15.17616328
LeftToes -1.72801e-010 9.79356e-011 1.69352e-011
71
root -83.95217729 40.8953 -97.43829801 -84.15789282 86.23652832 -95.1113338
RightUpLeg -27.01532898 4.399664933 2.582242254
RightLeg 15.46625342 2.187772214 5.611291829
RightFoot -8.983763921 6.61569247 3.030411566
RightToes 2.15368e-009 -1.59028e-015 9.93923e-017
Spine -10.1075 -7.2149 -4.39357
Spine1 15.8299 -9.4365 8.1343
HEad -6.40796 9.07582 0.307631
LeftShoulder1 9.93923e-017 0 1.22299e-017
LeftArm 8.7651 51.3765 -78.5059
LeftForeArm -136.305 -62.371 153.748
LeftHand 1.02962 10.608 -15.1058
RightShoulder 1.98785e-016 -4.96962e-017 1.55301e-017
RightArm 45.5486 -71.3746 44.1652
RightForeArm -81.9731 62.1403 -106.008
RightHand 1.17374 -10.3828 -6.1026
LeftUpLeg 8.878592997 -2.228219691 5.27508896
LeftLeg 15.85665589 0 0
LeftFoot 14.52342246 10.18810481 -14.05083512
LeftToes -1.72801e-010 9.79356e-011 1.69352e-011
72
root -81.72487133 40.4535 -97.19914085 -50.82957716 85.51327817 -61.26213925
RightUpLeg -28.10019147 6.800799288 2.934441243
RightLeg 11.82936762 1.732828502 5.007366789
RightFoot -10.56786423 5.981227584 3.797967474
RightToes 2.15368e-009 -1.59028e-015 9.93923e-017
Spine -10.3968 -7.25707 -4.29953
Spine1 17.203 -9.60069 8.75054
HEad -6.64267 10.4739 0.196833
LeftShoulder1 9.93923e-017 0 1.22299e-017
LeftArm 7.97958 51.4754 -79.8449
LeftForeArm -136.82 -61.7863 154.728
LeftHand 1.03494 10.5862 -14.9135
RightShoulder 1.98785e-016 -4.96962e-017 1.55301e-017
RightArm 45.0038 -70.084 43.7112
RightForeArm -81.2548 62.1672 -105.253
RightHand 1.18515 -10.48 -6.0172
LeftUpLeg 8.725843615 -2.709267776 6.013348248
LeftLeg 25.15485051 3.151322623 3.578577507
LeftFoot 12.97295717 8.142965565 -13.3955641
LeftToes -1.72801e-010 9.79356e-011 1.69352e-011
73
root -79.59057563 39.5201 -96.9607925 -35.64581175 83.64149506 -45.022019
RightUpLeg -30.3295785 7.298820926 4.313879324
RightLeg 17.8478115 1.227304173 3.54267136
RightFoot -10.17407675 5.603547709 1.422561796
RightToes 2.15368e-009 -1.59028e-015 9.93923e-017
Spine -9.27942 -7.07399 -3.42308
Spine1 17.5271 -9.39893 9.0012
HEad -7.18549 11.6691 0.0679829
LeftShoulder1 9.93923e-017 0 1.22299e-017
LeftArm 6.42729 52.0265 -81.7003
LeftForeArm -136.732 -62.0847 154.241
LeftHand 1.02467 10.6884 -15.2738
RightShoulder 1.98785e-016 -4.96962e-017 1.55301e-017
RightArm 42.6341 -68.0383 45.7016
RightForeArm -80.0412 62.2255 -103.593
RightHand 1.14845 -10.283 -5.79927
LeftUpLeg 8.808526997 -1.725309309 7.454151299
LeftLeg 36.37732197 0.7522877293 5.8866972
LeftFoot 12.86161723 7.888061653 -13.83044735
LeftToes -1.72801e-010 9.79356e-011 1.69352e-011
74
root -77.50103408 38.2962 -96.71897323 -33.02023562 81.32408695 -40.51932412
RightUpLeg -31.99761763 7.836728717 7.595322964
RightLeg 29.49887678 0 0
RightFoot -9.910634469 6.432927474 -3.384176804
RightToes 2.15368e-009 -1.59028e-015 9.93923e-017
Spine -6.8751 -6.48948 -2.06185
Spine1 17.4081 -8.91751 9.36767
HEad -9.28296 12.4955 -0.433101
LeftShoulder1 9.93923e-017 0 1.22299e-017
LeftArm 4.47908 52.0891 -84.3597
LeftForeArm -133.76 -64.1394 150.409
LeftHand 1.02509 10.7227 -15.2645
RightShoulder 1.98785e-016 -4.96962e-017 1.55301e-017
RightArm 38.385 -64.9455 49.8701
RightForeArm -78.69 62.295 -101.23
RightHand 1.1506 -10.2757 -5.88777
LeftUpLeg 8.43198253 -1.564210188 9.814238366
LeftLeg 48.29832238 -1.570896273 7.940978696
LeftFoot 13.14457437 7.10916189 -13.77371411
LeftToes -1.72801e-010 9.79356e-011 1.69352e-011
75
root -75.43608361 37.096 -96.49140594 -33.90094398 79.05452917 -39.31118324
RightUpLeg -32.32409502 10.17461906 8.617453744
RightLeg 41.35053347 0 0
RightFoot -13.89417803 4.306741547 -9.418060962
RightToes 2.15368e-009 -1.59028e-015 9.93923e-017
Spine -4.48368 -5.48296 -0.47027
Spine1 17.7236 -8.15737 9.80153
HEad -12.6039 12.6835 -1.25324
LeftShoulder1 9.93923e-017 0 1.22299e-017
LeftArm 2.99618 51.4367 -86.9841
LeftForeArm -122.511 -67.985 139.942
LeftHand 1.02455 10.5654 -15.2533
RightShoulder 1.98785e-016 -4.96962e-017 1.55301e-017
RightArm 32.6282 -60.7649 55.9194
RightForeArm -74.951 62.25 -97.4625
RightHand 1.20669 -10.5738 -6.22407
LeftUpLeg 6.73198677 -1.997045011 12.33215755
LeftLeg 59.94558951 -2.963119306 11.11333164
LeftFoot 12.32725738 5.614031779 -12.08800537
LeftToes -1.72801e-010 9.79356e-011 1.69352e-011
76
root -73.41710961 36.3408 -96.31593683 -35.27290506 77.52748591 -39.84465615
RightUpLeg -31.23132577 10.71302 9.657918241
RightLeg 48.59795576 0 0
RightFoot -20.42152593 3.530886696 -12.01498401
RightToes 2.15368e-009 -1.59028e-015 9.93923e-017
Spine -3.61503 -4.27803 1.8023
Spine1 18.3096 -7.03684 9.78237
HEad -15.1297 11.7049 -1.95657
LeftShoulder1 9.93923e-017 0 1.22299e-017
LeftArm 3.23529 51.6013 -88.0287
LeftForeArm -102.539 -71.146 122.636
LeftHand 1.00813 9.96562 -15.7683
RightShoulder 1.98785e-016 -4.96962e-017 1.55301e-017
RightArm 26.746 -56.5746 62.5721
RightForeArm -69.3162 61.9967 -93.5687
RightHand 1.23861 -10.7462 -6.3836
LeftUpLeg 1.853906996 -2.981770594 14.03308384
LeftLeg 69.56018973 -4.385263946 14.12713289
LeftFoot 10.80426617 3.830699113 -8.898078114
LeftToes -1.72801e-010 9.79356e-011 1.69352e-011
77
root -71.34825527 36.2357 -96.16342472 -34.80917961 77.27602404 -40.31335325
RightUpLeg -28.75054803 9.591009695 9.880508875
RightLeg 49.49574239 0 0
RightFoot -25.47475741 4.168773236 -12.05010283
RightToes 2.15368e-009 -1.59028e-015 9.93923e-017
Spine -4.81183 -2.87364 4.24873
Spine1 18.3941 -5.35106 8.93055
HEad -15.9587 9.21556 -1.93241
LeftShoulder1 9.93923e-017 0 1.22299e-017
LeftArm 5.98707 54.1144 -86.3549
LeftForeArm -87.6591 -72.1063 109.593
LeftHand 0.995761 9.09823 -16.355
RightShoulder 1.98785e-016 -4.96962e-017 1.55301e-017
RightArm 21.5708 -53.7853 68.7678
RightForeArm -66.9905 61.8906 -93.1198
RightHand 1.22145 -10.6296 -6.39429
LeftUpLeg -6.217088562 -4.26564778 14.1734913
LeftLeg 75.22508779 -5.957411326 13.81369491
LeftFoot 9.037080715 2.313593528 -5.808181068
LeftToes -1.72801e-010 9.79356e-011 1.69352e-011
78
root -68.18833774 37.29446231 -96.06814671 -23.28886473 76.82548561 -30.47749723
RightUpLeg -21.61822092 10.61025286 8.377653399
RightLeg 41.75129864 0 0
RightFoot -22.97969735 8.201359661 -6.2910083
RightToes 1.92085e-009 -1.59028e-015 9.93923e-017
Spine -7.934271959 -0.9258678905 5.694966439
Spine1 17.06053683 -3.148386315 5.525357113
HEad -15.33608015 5.511881866 -0.06275458683
LeftShoulder1 9.93923e-017 0 1.22299e-017
LeftArm 12.61301322 60.93929241 -77.37161353
LeftForeArm -87.70269946 -72.13734046 109.6148692
LeftHand 1.000001511 9.097674127 -15.98036471
RightShoulder 1.98785e-016 -4.96962e-017 1.55301e-017
RightArm 17.99570351 -51.86323843 74.67552058
RightForeArm -78.69916117 62.01078394 -107.8295579
RightHand 1.291348944 -11.09979602 -6.32966436
LeftUpLeg -15.74265626 -3.929257241 12.05272215
LeftLeg 68.08072331 -4.073615477 11.53286474
LeftFoot 5.63458286 1.616241105 -6.233970132
LeftToes 4.31103e-010 -3.63601e-011 9.64948e-011
79
root -64.98892677 38.52116957 -95.80037643 -13.13607916 75.29081632 -21.54994439
RightUpLeg -13.84071819 10.03115317 6.584658367
RightLeg 32.98856926 0 0
RightFoot -13.17756518 13.1435123 -0.348353031
RightToes 1.92085e-009 -1.59028e-015 9.93923e-017
Spine -10.00017579 1.730245241 8.263188554
Spine1 16.26875092 0.8437005339 0.8183530429
HEad -14.43506233 1.448496493 1.734321851
LeftShoulder1 9.93923e-017 0 1.22299e-017
LeftArm 23.02256756 66.71036963 -63.63365633
LeftForeArm -80.94135459 -72.15292635 100.6963338
LeftHand 1.048123592 8.757069707 -13.23295514
RightShoulder 1.98785e-016 -4.96962e-017 1.55301e-017
RightArm 15.39826298 -48.62717349 79.91185553
RightForeArm -82.92887 61.4320457 -116.8305754
RightHand 1.246506084 -10.9454935 -5.820823322
LeftUpLeg -23.38684981 -2.73528572 9.895145961
LeftLeg 57.78386617 -2.014887262 9.345767713
LeftFoot 2.676004935 1.150921082 -6.611344295
LeftToes 4.31103e-010 -3.63601e-011 9.64948e-011
80
root -61.88861933 39.70176516 -94.96921364 -3.363553682 73.08147162 -11.42001645
RightUpLeg -5.759588901 4.384775524 2.738663321
RightLeg 25.78773325 0 0
RightFoot 0.8575322579 19.15330177 0.9643427305
RightToes 1.92085e-009 -1.59028e-015 9.93923e-017
Spine -9.57300968 4.620716013 9.639536201
Spine1 14.81762519 5.069388458 -4.294937761
HEad -12.53748954 -2.196884355 2.748780461
LeftShoulder1 9.93923e-017 0 1.22299e-017
LeftArm 38.27969093 70.07997772 -45.51976592
LeftForeArm -67.12931387 -71.43271675 84.14916662
LeftHand 1.091400375 8.000179832 -9.122325452
RightShoulder 1.98785e-016 -4.96962e-017 1.55301e-017
RightArm 14.0477707 -44.57252666 84.17479637
RightForeArm -83.83293356 60.66742435 -121.8293719
RightHand 1.195551715 -10.96589273 -4.725064115
LeftUpLeg -26.84908708 -0.7381214625 6.854325055
LeftLeg 44.05286634 0.04448367093 5.956462667
LeftFoot 0.07798894658 0.9305086345 -7.113417187
LeftToes 4.31103e-010 -3.63601e-011 9.64948e-011
81
root -58.91891183 40.57898439 -94.15986029 1.780816711 70.24281662 -5.495998213
RightUpLeg 1.681203557 2.000819203 -1.794419749
RightLeg 22.83208554 0.7571723526 1.012779703
RightFoot 10.13078907 17.92688078 5.695264958
RightToes 1.92085e-009 -1.59028e-015 9.93923e-017
Spine -8.742860381 7.192326311 10.47261772
Spine1 13.98942487 8.601227729 -8.260669896
HEad -10.50176288 -4.766009789 2.958883341
LeftShoulder1 9.93923e-017 0 1.22299e-017
LeftArm 54.6159401 71.4534157 -26.6650713
LeftForeArm -54.47198315 -69.7576388 70.1374394
LeftHand 1.056079192 7.117742873 -5.35593586
RightShoulder 1.98785e-016 -4.96962e-017 1.55301e-017
RightArm 14.67732115 -40.34343011 86.74382668
RightForeArm -85.80047884 59.51951343 -126.5030155
RightHand 1.209818096 -11.16768901 -4.444566146
LeftUpLeg -27.8326644 1.703523588 4.580890606
LeftLeg 27.99262837 1.072674819 1.367015496
LeftFoot -0.8789923901 1.098725198 -8.217573172
LeftToes 4.31103e-010 -3.63601e-011 9.64948e-011
